<?xml version="1.0" encoding="UTF-8" standalone="no"?>
<!-- Created with Inkscape (http://www.inkscape.org/) -->

<svg
   xmlns:dc="http://purl.org/dc/elements/1.1/"
   xmlns:cc="http://creativecommons.org/ns#"
   xmlns:rdf="http://www.w3.org/1999/02/22-rdf-syntax-ns#"
   xmlns:svg="http://www.w3.org/2000/svg"
   xmlns="http://www.w3.org/2000/svg"
   xmlns:sodipodi="http://sodipodi.sourceforge.net/DTD/sodipodi-0.dtd"
   xmlns:inkscape="http://www.inkscape.org/namespaces/inkscape"
   width="105.25391mm"
   height="21.406145mm"
   viewBox="0 0 105.25391 21.406145"
   version="1.1"
   id="svg8"
   inkscape:version="0.92.2 (5c3e80d, 2017-08-06)"
   sodipodi:docname="vortex3_paths.svg"
   style="enable-background:new">
  <defs
     id="defs2">
    <filter
       style="color-interpolation-filters:sRGB"
       inkscape:label="Drop Shadow"
       id="filter1009">
      <feFlood
         flood-opacity="1"
         flood-color="rgb(0,0,0)"
         result="flood"
         id="feFlood999" />
      <feComposite
         in="flood"
         in2="SourceGraphic"
         operator="in"
         result="composite1"
         id="feComposite1001" />
      <feGaussianBlur
         in="composite1"
         stdDeviation="1"
         result="blur"
         id="feGaussianBlur1003" />
      <feOffset
         dx="0"
         dy="0"
         result="offset"
         id="feOffset1005" />
      <feComposite
         in="SourceGraphic"
         in2="offset"
         operator="over"
         result="composite2"
         id="feComposite1007" />
    </filter>
    <filter
       style="color-interpolation-filters:sRGB"
       inkscape:label="Drop Shadow"
       id="filter1249">
      <feFlood
         flood-opacity="0.294118"
         flood-color="rgb(0,0,0)"
         result="flood"
         id="feFlood1239" />
      <feComposite
         in="flood"
         in2="SourceGraphic"
         operator="in"
         result="composite1"
         id="feComposite1241" />
      <feGaussianBlur
         in="composite1"
         stdDeviation="1"
         result="blur"
         id="feGaussianBlur1243" />
      <feOffset
         dx="0"
         dy="0"
         result="offset"
         id="feOffset1245" />
      <feComposite
         in="SourceGraphic"
         in2="offset"
         operator="over"
         result="composite2"
         id="feComposite1247" />
    </filter>
    <filter
       style="color-interpolation-filters:sRGB"
       inkscape:label="Drop Shadow"
       id="filter1345">
      <feFlood
         flood-opacity="0.294118"
         flood-color="rgb(0,0,0)"
         result="flood"
         id="feFlood1335" />
      <feComposite
         in="flood"
         in2="SourceGraphic"
         operator="in"
         result="composite1"
         id="feComposite1337" />
      <feGaussianBlur
         in="composite1"
         stdDeviation="0.5"
         result="blur"
         id="feGaussianBlur1339" />
      <feOffset
         dx="0"
         dy="0"
         result="offset"
         id="feOffset1341" />
      <feComposite
         in="SourceGraphic"
         in2="offset"
         operator="over"
         result="composite2"
         id="feComposite1343" />
    </filter>
    <filter
       inkscape:collect="always"
       style="color-interpolation-filters:sRGB"
       id="filter1840">
      <feBlend
         inkscape:collect="always"
         mode="overlay"
         in2="BackgroundImage"
         id="feBlend1842" />
    </filter>
  </defs>
  <sodipodi:namedview
     id="base"
     pagecolor="#ffffff"
     bordercolor="#666666"
     borderopacity="1.0"
     inkscape:pageopacity="0.0"
     inkscape:pageshadow="2"
     inkscape:zoom="1.979899"
     inkscape:cx="283.65513"
     inkscape:cy="49.431706"
     inkscape:document-units="mm"
     inkscape:current-layer="text985"
     showgrid="false"
     inkscape:window-width="1440"
     inkscape:window-height="837"
     inkscape:window-x="-8"
     inkscape:window-y="-8"
     inkscape:window-maximized="1"
     fit-margin-top="0"
     fit-margin-left="0"
     fit-margin-right="0"
     fit-margin-bottom="0" />
  <metadata
     id="metadata5">
    <rdf:RDF>
      <cc:Work
         rdf:about="">
        <dc:format>image/svg+xml</dc:format>
        <dc:type
           rdf:resource="http://purl.org/dc/dcmitype/StillImage" />
        <dc:title></dc:title>
      </cc:Work>
    </rdf:RDF>
  </metadata>
  <g
     inkscape:label="Layer 1"
     inkscape:groupmode="layer"
     id="layer1"
     transform="translate(-29.964353,-118.22412)">
    <g
       aria-label="V  RTEX"
       style="font-style:normal;font-weight:normal;font-size:27.31578827px;line-height:125%;font-family:sans-serif;letter-spacing:0px;word-spacing:0px;fill:#0bcb53;fill-opacity:1;stroke:none;stroke-width:0.18520834;stroke-linecap:butt;stroke-linejoin:miter;stroke-miterlimit:4;stroke-dasharray:none;stroke-opacity:1;filter:url(#filter1840)"
       id="text985">
      <path
         d="m 40.162094,137.58557 c 0.218527,0.32779 0.628264,0.30047 0.792158,-0.0273 l 8.276684,-16.71726 c 0.300474,-0.6829 -0.655579,-0.90142 -0.874105,-0.32779 l -7.785,15.73389 -7.948894,-15.76121 c -0.273158,-0.62826 -1.174579,-0.24584 -0.928737,0.32779 z"
         style="font-style:normal;font-variant:normal;font-weight:normal;font-stretch:normal;font-family:'Hero Light';-inkscape-font-specification:'Hero Light, ';fill:#0bcb53;fill-opacity:1;stroke:none;stroke-width:0.18520834;stroke-miterlimit:4;stroke-dasharray:none;stroke-opacity:1"
         id="path855" />
      <path
         d="m 68.173583,121.08683 h 6.473842 c 3.742263,0 5.982157,2.15795 6.009473,4.83489 0.05463,2.48574 -1.775526,4.50711 -6.009473,4.50711 h -6.473842 z m 6.391894,10.13416 6.146053,6.47384 c 0.437052,0.43705 1.010684,-0.1639 0.573631,-0.62826 l -5.654368,-5.81827 c 3.988105,-0.30047 5.954842,-2.37647 5.954842,-5.32658 0,-3.08668 -2.349158,-5.68168 -6.965526,-5.68168 H 67.73653 c -0.273157,0 -0.464368,0.19121 -0.464368,0.46437 v 16.58068 c 0,0.57363 0.901421,0.57363 0.901421,-0.0273 v -6.03679 z"
         style="font-style:normal;font-variant:normal;font-weight:normal;font-stretch:normal;font-family:'Hero Light';-inkscape-font-specification:'Hero Light, ';fill:#0bcb53;fill-opacity:1;stroke:none;stroke-width:0.18520834;stroke-miterlimit:4;stroke-dasharray:none;stroke-opacity:1"
         id="path857" />
      <path
         d="m 83.70901,120.24004 c -0.655579,0 -0.655579,0.81947 0,0.81947 h 7.047473 v 16.17095 c 0,0.35511 0.245842,0.519 0.464369,0.519 0.218526,0 0.491684,-0.16389 0.491684,-0.519 l -0.02732,-16.17095 h 7.074789 c 0.655579,0 0.655579,-0.81947 0,-0.81947 -5.026105,0 -10.05221,0 -15.050999,0 z"
         style="font-style:normal;font-variant:normal;font-weight:normal;font-stretch:normal;font-family:'Hero Light';-inkscape-font-specification:'Hero Light, ';fill:#0bcb53;fill-opacity:1;stroke:none;stroke-width:0.18520834;stroke-miterlimit:4;stroke-dasharray:none;stroke-opacity:1"
         id="path859" />
      <path
         d="m 102.79848,129.44546 h 11.52726 c 0.57363,0 0.57363,-0.81947 0,-0.81947 h -11.52726 v -7.53916 h 12.07358 c 0.57363,0 0.57363,-0.81947 0.0273,-0.81947 h -12.26478 c -0.43706,0 -0.73753,0.32779 -0.73753,0.71021 v 15.9251 c 0,0.40974 0.30047,0.73753 0.73753,0.73753 h 12.23747 c 0.57363,0 0.57363,-0.87411 0,-0.87411 h -12.07358 z"
         style="font-style:normal;font-variant:normal;font-weight:normal;font-stretch:normal;font-family:'Hero Light';-inkscape-font-specification:'Hero Light, ';fill:#0bcb53;fill-opacity:1;stroke:none;stroke-width:0.18520834;stroke-miterlimit:4;stroke-dasharray:none;stroke-opacity:1"
         id="path861" />
      <path
         d="m 118.6873,120.21272 c -0.43705,-0.519 -1.09263,0.0546 -0.65558,0.54632 l 6.96553,8.00353 -7.21137,8.24936 c -0.49168,0.57364 0.21853,1.09264 0.6829,0.57364 l 7.12942,-8.22206 7.1021,8.22206 c 0.49169,0.519 1.11995,0 0.6829,-0.57364 l -7.23869,-8.24936 7.02016,-7.97621 c 0.40974,-0.519 -0.27316,-1.09264 -0.68289,-0.57364 l -6.88358,7.9489 z"
         style="font-style:normal;font-variant:normal;font-weight:normal;font-stretch:normal;font-family:'Hero Light';-inkscape-font-specification:'Hero Light, ';fill:#0bcb53;fill-opacity:1;stroke:none;stroke-width:0.18520834;stroke-miterlimit:4;stroke-dasharray:none;stroke-opacity:1"
         id="path863" />
    </g>
    <g
       id="g1424"
       transform="matrix(0.97287988,0,0,0.97287988,-6.4557925,3.3708103)">
      <path
         inkscape:connector-curvature="0"
         id="path954"
         d="m 65.451943,119.37641 a 9.6831354,9.6831354 0 0 0 -9.394969,7.38624 11.712926,11.712926 0 0 1 9.521494,-4.90735 11.712926,11.712926 0 0 1 9.123796,4.37376 9.6831354,9.6831354 0 0 0 -9.250321,-6.85265 z"
         style="opacity:1;fill:#32d16d;fill-opacity:1;fill-rule:nonzero;stroke:#32d16d;stroke-width:0.38643292;stroke-linecap:round;stroke-linejoin:round;stroke-miterlimit:4;stroke-dasharray:none;stroke-opacity:1;paint-order:markers stroke fill" />
      <path
         inkscape:connector-curvature="0"
         id="path973"
         d="m 68.81411,123.24834 a 7.3013959,7.3013959 0 0 0 -1.688642,-0.13256 9.1755507,9.1755507 0 0 1 5.341101,10.23322 9.1755507,9.1755507 0 0 1 -1.410692,3.34571 7.3013959,7.3013959 0 0 0 3.466215,-4.84175 7.3013959,7.3013959 0 0 0 -5.707982,-8.60462 z"
         style="opacity:1;fill:#00ac40;fill-opacity:1;fill-rule:nonzero;stroke:#00ac40;stroke-width:0.38600001;stroke-linecap:round;stroke-linejoin:round;stroke-miterlimit:4;stroke-dasharray:none;stroke-opacity:1;paint-order:markers stroke fill" />
      <path
         inkscape:connector-curvature="0"
         id="path978"
         d="m 71.626322,131.82142 a 8.5508323,8.5508323 0 0 1 -10.664631,3.72824 5.8176896,5.8176896 0 0 0 2.177966,1.98722 5.8176896,5.8176896 0 0 0 7.852534,-2.45589 5.8176896,5.8176896 0 0 0 0.634131,-3.25957 z"
         style="opacity:1;fill:#008532;fill-opacity:1;fill-rule:nonzero;stroke:#008532;stroke-width:0.38643292;stroke-linecap:round;stroke-linejoin:round;stroke-miterlimit:4;stroke-dasharray:none;stroke-opacity:1;paint-order:markers stroke fill" />
      <circle
         style="opacity:1;fill:none;fill-opacity:1;fill-rule:nonzero;stroke:#fefefe;stroke-width:0.5;stroke-miterlimit:4;stroke-dasharray:none;stroke-opacity:1;paint-order:markers stroke fill"
         id="path1867"
         cx="65.954124"
         cy="132.56287"
         r="6.0803819" />
    </g>
  </g>
</svg>
